<?xml version="1.0" encoding="iso-8859-1"?>
<!-- Uploaded to: SVG Repo, www.svgrepo.com, Generator: SVG Repo Mixer Tools -->
<svg fill="#000000" version="1.1" id="Layer_1" xmlns="http://www.w3.org/2000/svg" xmlns:xlink="http://www.w3.org/1999/xlink" 
	 viewBox="0 0 496 496" xml:space="preserve">
<g>
	<g>
		<g>
			<path d="M408,84.28C408,64.272,391.728,48,371.72,48c-9.696,0-18.808,3.776-25.656,10.624L328,76.688l-18.064-18.064
				C303.088,51.776,293.976,48,284.28,48C264.272,48,248,64.272,248,84.28c0,9.696,3.776,18.808,10.624,25.656L328,179.312
				l69.376-69.376C404.224,103.088,408,93.976,408,84.28z M386.064,98.624L328,156.688l-58.064-58.064
				C266.112,94.8,264,89.704,264,84.28C264,73.104,273.104,64,284.28,64c5.424,0,10.512,2.112,14.344,5.936L328,99.312
				l29.376-29.376C361.2,66.112,366.296,64,371.72,64C382.896,64,392,73.104,392,84.28C392,89.704,389.888,94.8,386.064,98.624z"/>
			<path d="M109.248,185.96C100.952,178.752,96,166.064,96,152.024v-25.496c9.288-3.312,16-12.112,16-22.528V41.76
				c4.872-4.4,8-10.696,8-17.76c0-13.232-10.768-24-24-24H48C34.768,0,24,10.768,24,24c0,7.064,3.128,13.36,8,17.76V104
				c0,10.416,6.704,19.216,16,22.528v25.792c0,13.672-5.072,26.552-13.24,33.632C22.608,196.48,0,216.08,0,240v232
				c0,13.232,10.768,24,24,24h96c13.232,0,24-10.768,24-24V240C144,216.168,121.392,196.52,109.248,185.96z M96,104
				c0,4.416-3.584,8-8,8H56c-4.416,0-8-3.584-8-8V48h48V104z M40,24c0-4.416,3.584-8,8-8h48c4.416,0,8,3.584,8,8s-3.584,8-8,8H48
				C43.584,32,40,28.416,40,24z M128,472c0,4.416-3.584,8-8,8H24c-4.416,0-8-3.584-8-8v-56h112V472z M128,400H16V264h112V400z
				 M128,248H16v-8c0-16.616,19.024-33.104,29.24-41.952C56.984,187.864,64,170.776,64,152.32V128h16v24.024
				c0,18.6,7.008,35.808,18.752,46.016C108.976,206.92,128,223.464,128,240V248z"/>
			<path d="M221.864,188.568L192.976,330.04c-2.448,15.296,1.928,31.032,12.328,44.32c9.584,12.248,23.416,20.896,38.056,24.16
				l-6.504,76.904l-44.24-3.4l-1.232,15.952l104,8l1.232-15.952l-43.808-3.368l6.496-76.8c14.976-0.76,30.056-6.936,41.568-17.408
				c12.48-11.352,19.448-26.136,19.6-41.968l-4.712-143.976L221.864,188.568z M234.696,205.712l65.528,5.544l3.288,100.224
				c-23.032-2.472-35.616-14.888-49.864-29.136c-10.064-10.064-22.408-12.408-32.096-12.32L234.696,205.712z M290.112,370.608
				c-10.352,9.408-24.392,14.328-37.488,13.248c-13.128-1.12-26.112-8.352-34.72-19.36c-7.624-9.744-10.864-21.088-9.192-31.592
				l9.536-46.68c6.808-0.608,16.736,0.08,24.096,7.432c14.808,14.816,31.616,31.264,61.696,33.824l0.432,13.184
				C304.36,351.656,299.256,362.288,290.112,370.608z"/>
			<path d="M430.064,475.144l-10.296-77.288c14.464-3.96,27.864-13.256,36.856-25.952c9.752-13.768,13.368-29.696,10.12-45.192
				l-35.56-139.592l-93.416,12.432l2.208,144.384c0.904,15.464,8.568,29.888,21.576,40.624c12,9.904,27.36,15.424,42.36,15.464
				l10.168,76.368l-46.72,3.64l1.248,15.952l111.048-8.648l-1.248-15.952L430.064,475.144z M353.992,213.528l65.2-8.68
				l27.704,108.736c-6.912,2.12-16.192,7.096-22.056,18.832c-3.408,6.824-8.376,11.368-13.288,12.168
				c-4.328,0.752-9.04-1.4-13.896-6.24c-14.424-14.424-34.04-17.496-42.04-18.16L353.992,213.528z M409.808,383.648
				c-13.104,1.736-27.296-2.536-38.064-11.432c-9.544-7.872-15.144-18.256-15.776-28.88l-0.104-7.064
				c6.64,0.72,20.504,3.408,30.48,13.384c8.744,8.744,17.112,11.064,23.52,11.064c1.536,0,2.96-0.136,4.248-0.336
				c10.128-1.648,19.248-9.224,25.04-20.808c3.168-6.344,8.008-9.16,11.704-10.456l0.304,1.2c2.248,10.76-0.448,22.24-7.592,32.336
				C435.488,374.064,422.872,381.904,409.808,383.648z"/>
			<rect x="480" y="120" width="16" height="16"/>
			<rect x="470.62" y="97.356" transform="matrix(0.7071 0.7071 -0.7071 0.7071 214.6827 -307.5773)" width="16" height="16"/>
			<rect x="448" y="88" width="16" height="16"/>
			<rect x="425.358" y="97.363" transform="matrix(-0.7071 0.7071 -0.7071 -0.7071 814.2906 -126.5651)" width="16" height="16"/>
			<rect x="416" y="120" width="16" height="16"/>
			<rect x="425.361" y="142.637" transform="matrix(-0.7071 -0.7071 0.7071 -0.7071 633.2762 563.5864)" width="16" height="16"/>
			<rect x="448" y="152" width="16" height="16"/>
			<rect x="470.615" y="142.615" transform="matrix(-0.7071 -0.7071 0.7071 -0.7071 710.5455 595.548)" width="16" height="16"/>
			<rect x="216" y="32" width="16" height="16"/>
			<rect x="206.625" y="9.382" transform="matrix(0.7071 0.7071 -0.7071 0.7071 75.1531 -146.6716)" width="16" height="16"/>
			<rect x="184" width="16" height="16"/>
			<rect x="161.371" y="9.396" transform="matrix(-0.7071 -0.7071 0.7071 -0.7071 276.8328 149.4601)" width="16" height="16"/>
			<rect x="152" y="32" width="16" height="16"/>
			<rect x="161.366" y="54.639" transform="matrix(-0.7071 -0.7071 0.7071 -0.7071 244.8325 226.6909)" width="16" height="16"/>
			<rect x="184" y="64" width="16" height="16"/>
			<rect x="206.628" y="54.633" transform="matrix(0.7071 -0.7071 0.7071 0.7071 18.5749 170.1094)" width="16" height="16"/>
			<rect x="416" y="16" width="16" height="16"/>
			<rect x="216" y="144" width="16" height="16"/>
		</g>
	</g>
</g>
</svg>